HIERARCHY
ROOT reference
{
  OFFSET -65.3212 -1.93545 -120.338
  CHANNELS 6 Xposition Yposition Zposition Zrotation Xrotation Yrotation
  JOINT Hips
  {
    OFFSET 0 78.7191 0
    CHANNELS 3 Zrotation Xrotation Yrotation
    JOINT Chest
    {
      OFFSET 0 8.7983 -4.7612
      CHANNELS 3 Zrotation Xrotation Yrotation
      JOINT Chest2
      {
        OFFSET 0 8.0291 0.4195
        CHANNELS 3 Zrotation Xrotation Yrotation
        JOINT Chest3
        {
          OFFSET 0 9.9351 -2.2114
          CHANNELS 3 Zrotation Xrotation Yrotation
          JOINT Neck
          {
            OFFSET 0 22.3885 -0.4656
            CHANNELS 3 Zrotation Xrotation Yrotation
            JOINT Head
            {
              OFFSET -0.0001 12.643 3.4389
              CHANNELS 3 Zrotation Xrotation Yrotation
              End Site
              {
                OFFSET 0.0001 17.6655 0.5274
              }
            }
          }
          JOINT LeftCollar
          {
            OFFSET 2.2603 21.606 7.4023
            CHANNELS 3 Zrotation Xrotation Yrotation
            JOINT LeftShoulder
            {
              OFFSET 13.5163 -1.1332 -5.0146
              CHANNELS 3 Zrotation Xrotation Yrotation
              JOINT LeftElbow
              {
                OFFSET -0.0995 -28.05 -0.2431
                CHANNELS 3 Zrotation Xrotation Yrotation
                JOINT LeftWrist
                {
                  OFFSET 0.0679 -23.3996 -0.1402
                  CHANNELS 3 Zrotation Xrotation Yrotation
                  JOINT LeftFinger1
                  {
                    OFFSET 0.7932 -9.069 2.5189
                    CHANNELS 3 Zrotation Xrotation Yrotation
                    JOINT LeftFinger11
                    {
                      OFFSET -0.8272 -3.3923 0.5977
                      CHANNELS 3 Zrotation Xrotation Yrotation
                      JOINT LeftFinger12
                      {
                        OFFSET -0.5649 -2.3158 0.4082
                        CHANNELS 3 Zrotation Xrotation Yrotation
                        End Site
                        {
                          OFFSET -0.4919 -1.6479 0.2673
                        }
                      }
                    }
                  }
                  JOINT LeftFinger2
                  {
                    OFFSET 0.9159 -9.2044 0.2193
                    CHANNELS 3 Zrotation Xrotation Yrotation
                    JOINT LeftFinger21
                    {
                      OFFSET 0.0117 -4.1944 -0.0248
                      CHANNELS 3 Zrotation Xrotation Yrotation
                      JOINT LeftFinger22
                      {
                        OFFSET 0.0071 -2.3249 -0.0142
                        CHANNELS 3 Zrotation Xrotation Yrotation
                        End Site
                        {
                          OFFSET -0.1475 -2.0882 0.0028
                        }
                      }
                    }
                  }
                  JOINT LeftFinger3
                  {
                    OFFSET 0.6113 -8.7231 -2.0637
                    CHANNELS 3 Zrotation Xrotation Yrotation
                    JOINT LeftFinger31
                    {
                      OFFSET -0.1927 -3.8059 -0.2383
                      CHANNELS 3 Zrotation Xrotation Yrotation
                      JOINT LeftFinger32
                      {
                        OFFSET -0.1091 -2.1688 -0.1362
                        CHANNELS 3 Zrotation Xrotation Yrotation
                        End Site
                        {
                          OFFSET -0.2358 -1.9176 -0.0906
                        }
                      }
                    }
                  }
                  JOINT LeftFinger4
                  {
                    OFFSET -0.6151 -8.0947 -3.5641
                    CHANNELS 3 Zrotation Xrotation Yrotation
                    JOINT LeftFinger41
                    {
                      OFFSET -0.4882 -2.341 -0.6462
                      CHANNELS 3 Zrotation Xrotation Yrotation
                      JOINT LeftFinger42
                      {
                        OFFSET -0.3575 -1.7167 -0.4742
                        CHANNELS 3 Zrotation Xrotation Yrotation
                        End Site
                        {
                          OFFSET -0.4187 -1.5237 -0.3496
                        }
                      }
                    }
                  }
                  JOINT LeftFinger0
                  {
                    OFFSET -1.42 -1.8761 1.4223
                    CHANNELS 3 Zrotation Xrotation Yrotation
                    JOINT LeftFinger01
                    {
                      OFFSET -1.1471 -3.4929 2.6334
                      CHANNELS 3 Zrotation Xrotation Yrotation
                      JOINT LeftFinger02
                      {
                        OFFSET -0.823 -2.3 1.6571
                        CHANNELS 3 Zrotation Xrotation Yrotation
                        End Site
                        {
                          OFFSET -0.5822 -1.6914 1.1582
                        }
                      }
                    }
                  }
                }
              }
            }
          }
          JOINT RightCollar
          {
            OFFSET -2.2603 21.606 7.4023
            CHANNELS 3 Zrotation Xrotation Yrotation
            JOINT RightShoulder
            {
              OFFSET -13.5187 -1.1334 -5.0155
              CHANNELS 3 Zrotation Xrotation Yrotation
              JOINT RightElbow
              {
                OFFSET 0.0994 -28.0499 -0.2431
                CHANNELS 3 Zrotation Xrotation Yrotation
                JOINT RightWrist
                {
                  OFFSET -0.0679 -23.3996 -0.1402
                  CHANNELS 3 Zrotation Xrotation Yrotation
                  JOINT RightFinger1
                  {
                    OFFSET -0.7932 -9.0691 2.5189
                    CHANNELS 3 Zrotation Xrotation Yrotation
                    JOINT RightFinger11
                    {
                      OFFSET 0.8272 -3.3923 0.5977
                      CHANNELS 3 Zrotation Xrotation Yrotation
                      JOINT RightFinger12
                      {
                        OFFSET 0.565 -2.3158 0.4082
                        CHANNELS 3 Zrotation Xrotation Yrotation
                        End Site
                        {
                          OFFSET 0.4919 -1.6479 0.2673
                        }
                      }
                    }
                  }
                  JOINT RightFinger2
                  {
                    OFFSET -0.916 -9.2044 0.2193
                    CHANNELS 3 Zrotation Xrotation Yrotation
                    JOINT RightFinger21
                    {
                      OFFSET -0.0117 -4.1944 -0.0248
                      CHANNELS 3 Zrotation Xrotation Yrotation
                      JOINT RightFinger22
                      {
                        OFFSET -0.0071 -2.3249 -0.0142
                        CHANNELS 3 Zrotation Xrotation Yrotation
                        End Site
                        {
                          OFFSET 0.1475 -2.0882 0.0028
                        }
                      }
                    }
                  }
                  JOINT RightFinger3
                  {
                    OFFSET -0.6113 -8.7231 -2.0637
                    CHANNELS 3 Zrotation Xrotation Yrotation
                    JOINT RightFinger31
                    {
                      OFFSET 0.1927 -3.8059 -0.2383
                      CHANNELS 3 Zrotation Xrotation Yrotation
                      JOINT RightFinger32
                      {
                        OFFSET 0.1091 -2.1688 -0.1362
                        CHANNELS 3 Zrotation Xrotation Yrotation
                        End Site
                        {
                          OFFSET 0.2358 -1.9176 -0.0906
                        }
                      }
                    }
                  }
                  JOINT RightFinger4
                  {
                    OFFSET 0.6151 -8.0947 -3.564
                    CHANNELS 3 Zrotation Xrotation Yrotation
                    JOINT RightFinger41
                    {
                      OFFSET 0.4882 -2.341 -0.6462
                      CHANNELS 3 Zrotation Xrotation Yrotation
                      JOINT RightFinger42
                      {
                        OFFSET 0.3574 -1.7166 -0.4742
                        CHANNELS 3 Zrotation Xrotation Yrotation
                        End Site
                        {
                          OFFSET 0.4187 -1.5237 -0.3496
                        }
                      }
                    }
                  }
                  JOINT RightFinger0
                  {
                    OFFSET 1.4199 -1.8761 1.4221
                    CHANNELS 3 Zrotation Xrotation Yrotation
                    JOINT RightFinger01
                    {
                      OFFSET 1.1472 -3.4929 2.6336
                      CHANNELS 3 Zrotation Xrotation Yrotation
                      JOINT RightFinger02
                      {
                        OFFSET 0.8229 -2.3 1.6571
                        CHANNELS 3 Zrotation Xrotation Yrotation
                        End Site
                        {
                          OFFSET 0.5822 -1.6914 1.1582
                        }
                      }
                    }
                  }
                }
              }
            }
          }
        }
      }
    }
    JOINT RightHip
    {
      OFFSET -9.412 3.9771 -0.7758
      CHANNELS 3 Zrotation Xrotation Yrotation
      JOINT RightKnee
      {
        OFFSET -0.7531 -40.938 0
        CHANNELS 3 Zrotation Xrotation Yrotation
        JOINT RightAnkle
        {
          OFFSET 0 -40.1986 0
          CHANNELS 3 Zrotation Xrotation Yrotation
          JOINT RightToe
          {
            OFFSET 0 -4.4182 9.239
            CHANNELS 3 Zrotation Xrotation Yrotation
            End Site
            {
              OFFSET 0 0 6.1981
            }
          }
        }
      }
    }
    JOINT LeftHip
    {
      OFFSET 9.4119 3.9773 -0.7758
      CHANNELS 3 Zrotation Xrotation Yrotation
      JOINT LeftKnee
      {
        OFFSET 0.7532 -40.9383 0
        CHANNELS 3 Zrotation Xrotation Yrotation
        JOINT LeftAnkle
        {
          OFFSET 0 -40.1986 0
          CHANNELS 3 Zrotation Xrotation Yrotation
          JOINT LeftToe
          {
            OFFSET 0 -4.4182 9.239
            CHANNELS 3 Zrotation Xrotation Yrotation
            End Site
            {
              OFFSET 0 0 6.1981
            }
          }
        }
      }
    }
  }
}
MOTION
Frames:	4
Frame Time:	0.0333333
-31.5569 45.2533 -6.42045 0 0 -0 2.99508 -40.1194 27.8548 -5.19319 6.25155 -6.98873 -9.67147 13.0692 -13.5081 -9.67148 13.0692 -13.5081 -1.89485 -43.1495 29.5858 -14.4847 4.90678 6.49302 18.3364 0.249664 -10.791 20.5152 -9.82513 15.4532 -121.747 -67.6521 -77.114 -54.5244 25.0574 48.9232 -3.03457 13.5333 -2.18213 -35.3167 20.4567 4.66831 -36.3891 20.9689 4.99576 -1.00371 1.77404 1.17351 -42.7842 24.7472 5.5452 -8.91323 5.62873 -0.442287 -6.58204 6.72807 5.06491 -13.8829 9.6822 -0.672554 -15.2684 10.6412 -0.610501 13.8074 -0.976098 8.79334 -17.7367 12.2752 -1.06116 -8.75065 6.03018 -1.00085 -11.5753 -16.7454 -49.448 -4.53234 0.274134 0.31306 8.53295 10.6972 -3.07917 -10.2789 -0.425959 28.3411 -42.6359 -43.7073 -21.1925 89.1658 -86.7222 50.7608 -29.1558 -15.8477 -53.9462 -26.3198 9.86179 9.08115 39.4243 12.0336 -4.97749 45.4054 13.4037 -6.3864 -2.23353 10.2521 5.03881 52.3752 15.6204 -6.40184 44.0891 13.7159 -4.48613 15.0073 7.58685 -5.70541 37.2883 13.8495 -2.53176 38.5715 14.2636 -2.77353 23.0539 4.3753 -8.90258 30.7535 11.5466 -0.514164 30.6847 11.5224 -0.506076 7.91149 0.880167 52.6244 -0.671122 1.52911 0.489047 -7.19739 14.5369 5.60463 30.2643 -60.9032 -11.6102 59.6452 73.5161 -56.1364 5.02701 -5.34627 -11.6808 2.34545 15.1311 -1.18545 4.68239 -29.4505 19.7136 -179.997 67.4195 -178.144 4.48908 -10.6234 -7.39338 0.0427741 -0.319811 8.47609e-005 
-31.5588 45.2334 -6.42568 0 0 -0 3.04096 -39.9181 27.7189 -5.12992 6.01635 -7.04399 -9.56086 12.5982 -13.6397 -9.56087 12.5982 -13.6397 -1.46743 -45.6841 29.6229 -13.4209 3.06839 6.54822 16.2754 0.265411 -10.6657 21.7453 -8.63491 16.007 -122.308 -66.3601 -77.1584 -54.1146 25.3151 49.0221 -3.03457 13.5333 -2.18209 -35.3168 20.4568 4.6683 -36.3891 20.9688 4.99579 -1.00372 1.77404 1.17356 -42.7842 24.7472 5.54519 -8.91324 5.62876 -0.44227 -6.58205 6.72805 5.06492 -13.8829 9.68222 -0.672558 -15.2684 10.6412 -0.610498 13.8074 -0.976091 8.79339 -17.7367 12.2752 -1.06117 -8.75064 6.03018 -1.00086 -11.5753 -16.7453 -49.4481 -4.53231 0.274147 0.313039 8.53294 10.6972 -3.07917 -11.1488 -0.416843 27.5806 -40.4615 -44.2075 -19.774 87.0861 -86.3111 48.8713 -28.6998 -15.9946 -53.6561 -26.3198 9.86178 9.08116 39.4243 12.0337 -4.97742 45.4054 13.4037 -6.38631 -2.23351 10.2521 5.03863 52.3752 15.6204 -6.40177 44.0891 13.7159 -4.48614 15.0073 7.58689 -5.70532 37.2882 13.8495 -2.53175 38.5715 14.2636 -2.77345 23.0539 4.3753 -8.9026 30.7535 11.5466 -0.514085 30.6848 11.5224 -0.506011 7.91148 0.880168 52.6244 -0.671122 1.52911 0.489075 -7.1974 14.5369 5.60467 30.5444 -60.8829 -11.0878 59.7041 73.5242 -56.203 5.00321 -5.37222 -11.6878 2.35161 15.1672 -1.18915 4.65079 -29.4779 19.7361 -179.98 67.6134 -178.196 4.46759 -10.6581 -7.42098 0.0492 -0.368024 0.00012279 
-31.5589 45.2314 -6.4264 0 0 -0 3.09007 -39.6835 27.57 -5.06132 5.77405 -7.08972 -9.44221 12.1115 -13.7526 -9.44222 12.1115 -13.7526 -0.882197 -47.7977 29.2629 -12.011 0.995902 6.50245 14.1802 0.26329 -10.6135 22.9342 -7.32502 16.6307 -123.003 -65.0179 -77.2889 -53.7399 25.6513 49.089 -3.03458 13.5333 -2.18208 -35.3168 20.4568 4.6683 -36.3891 20.9688 4.99588 -1.00372 1.77403 1.17357 -42.7842 24.7472 5.54524 -8.91321 5.62876 -0.442244 -6.58204 6.72805 5.06493 -13.8829 9.68221 -0.67252 -15.2684 10.6412 -0.610465 13.8074 -0.976098 8.79341 -17.7367 12.2752 -1.06115 -8.75065 6.03017 -1.00086 -11.5752 -16.7453 -49.4479 -4.53231 0.274106 0.313066 8.53294 10.6972 -3.07918 -11.9311 -0.404575 26.6834 -38.133 -44.7269 -18.2357 85.6644 -85.8092 47.6478 -28.1857 -16.1078 -53.2459 -26.3198 9.86178 9.08117 39.4243 12.0336 -4.97756 45.4054 13.4037 -6.38646 -2.23351 10.2521 5.03863 52.3752 15.6203 -6.4019 44.0892 13.7159 -4.48615 15.0073 7.58679 -5.70551 37.2882 13.8495 -2.53173 38.5715 14.2636 -2.77365 23.0539 4.37529 -8.9026 30.7535 11.5466 -0.514014 30.6847 11.5224 -0.506137 7.91147 0.880164 52.6244 -0.671166 1.52908 0.489104 -7.19742 14.5369 5.60476 30.8576 -60.8288 -10.5171 59.7352 73.5293 -56.2441 4.91048 -5.36214 -11.6637 2.345 15.1284 -1.18519 4.63649 -29.4941 19.7922 -179.975 67.8199 -178.213 4.39221 -10.5543 -7.47023 0.0772239 -0.576913 0.000370324 
-31.5247 45.2306 -6.44777 0 0 -0 3.104 -39.5414 27.4328 -4.97766 5.55148 -7.12654 -9.29294 11.6615 -13.8476 -9.29296 11.6616 -13.8476 -0.821251 -49.8119 28.0251 -9.26898 -1.17113 6.39826 12.1291 0.24491 -10.6481 24.0406 -6.18179 17.251 -123.248 -63.8759 -77.1564 -53.4658 25.8738 49.2088 -3.03459 13.5333 -2.18205 -35.3168 20.4568 4.66832 -36.3891 20.9688 4.99571 -1.00374 1.77404 1.17364 -42.7842 24.7471 5.54527 -8.91321 5.62881 -0.442187 -6.58204 6.72805 5.06497 -13.8829 9.68223 -0.672505 -15.2683 10.6413 -0.610376 13.8074 -0.976071 8.79345 -17.7367 12.2752 -1.06117 -8.75064 6.0302 -1.00085 -11.5752 -16.7454 -49.4479 -4.53233 0.274102 0.313093 8.53293 10.6973 -3.07917 -12.5312 -0.387034 25.6575 -35.9259 -45.319 -16.6535 80.0072 -85.2768 42.6315 -27.5789 -16.0753 -53.3086 -26.3198 9.8618 9.08119 39.4243 12.0336 -4.97755 45.4054 13.4037 -6.38644 -2.23351 10.2521 5.03864 52.3752 15.6203 -6.40188 44.0891 13.7159 -4.48614 15.0073 7.58681 -5.70554 37.2882 13.8495 -2.53164 38.5715 14.2636 -2.77365 23.0538 4.3753 -8.9026 30.7535 11.5466 -0.514179 30.6847 11.5224 -0.506139 7.91146 0.880162 52.6244 -0.671196 1.52904 0.489182 -7.19734 14.537 5.60459 30.9121 -60.7448 -10.3937 59.7085 73.5363 -56.2425 4.98155 -5.302 -11.6963 2.31255 14.938 -1.16582 4.59663 -29.4695 19.7379 -179.957 68.0023 -178.263 4.32301 -10.524 -7.47096 0.0749967 -0.561001 0.00032473 
